<svg width="247" height="34" fill="none" xmlns="http://www.w3.org/2000/svg"><path d="M18 33h16v-2.586h-7.277A15.924 15.924 0 0 1 18 33ZM18 27.182a3.236 3.236 0 0 1-3.232-3.232A3.236 3.236 0 0 1 18 20.716v-7.434a3.236 3.236 0 0 1-3.232-3.232A3.236 3.236 0 0 1 18 6.817V1C9.163 1 2 8.163 2 17s7.163 16 16 16v-5.818Zm-6.95-6.95A3.236 3.236 0 0 1 7.818 17a3.236 3.236 0 0 1 3.232-3.232A3.236 3.236 0 0 1 14.284 17a3.236 3.236 0 0 1-3.232 3.232Z" fill="#E30B13"/><path d="M34 17c0-8.837-7.163-16-16-16v5.818a3.236 3.236 0 0 1 3.232 3.232A3.236 3.236 0 0 1 18 13.284v7.434a3.236 3.236 0 0 1 3.232 3.233A3.236 3.236 0 0 1 18 27.181V33c3.218 0 6.214-.95 8.723-2.586C31.103 27.56 34 22.618 34 17Zm-9.05-3.232A3.236 3.236 0 0 1 28.181 17a3.236 3.236 0 0 1-3.232 3.232A3.236 3.236 0 0 1 21.716 17a3.236 3.236 0 0 1 3.233-3.232Z" fill="#CE080F"/><g id="svgGroup" transform="translate(40, 1)" stroke-linecap="round" fill-rule="evenodd" font-size="9pt" stroke="#ffffff" stroke-width="0.25mm" fill="#ffffff" style="stroke:#ffffff;stroke-width:0.25mm;fill:#ffffff"><path d="M 88.2 30.87 L 84.42 30.87 L 84.42 9.03 L 88.074 9.03 L 88.074 12.684 Q 89.25 10.92 91.056 9.723 A 7.226 7.226 0 0 1 94.921 8.53 A 8.76 8.76 0 0 1 95.172 8.526 Q 97.626 8.526 99.24 9.645 A 5.513 5.513 0 0 1 99.435 9.786 A 6.615 6.615 0 0 1 101.723 13.016 A 8.043 8.043 0 0 1 101.766 13.146 Q 103.068 11.214 104.853 9.87 Q 106.638 8.526 109.284 8.526 Q 112.854 8.526 114.597 10.773 A 7.977 7.977 0 0 1 116.03 13.828 Q 116.302 14.948 116.335 16.255 A 14.531 14.531 0 0 1 116.34 16.632 L 116.34 30.87 L 112.56 30.87 L 112.56 16.926 Q 112.56 14.658 111.51 13.251 A 3.349 3.349 0 0 0 109.069 11.867 A 4.485 4.485 0 0 0 108.612 11.844 A 5.009 5.009 0 0 0 105.773 12.738 A 6.718 6.718 0 0 0 105.105 13.251 Q 103.488 14.658 102.27 16.548 L 102.27 30.87 L 98.49 30.87 L 98.49 16.926 Q 98.49 14.658 97.44 13.251 A 3.349 3.349 0 0 0 94.999 11.867 A 4.485 4.485 0 0 0 94.542 11.844 A 5.048 5.048 0 0 0 91.888 12.612 A 6.823 6.823 0 0 0 91.056 13.209 Q 89.418 14.574 88.2 16.422 L 88.2 30.87 Z M 40.488 30.87 L 36.708 30.87 L 36.708 9.03 L 40.362 9.03 L 40.362 12.684 Q 41.538 10.92 43.365 9.723 A 7.273 7.273 0 0 1 46.35 8.621 A 9.504 9.504 0 0 1 47.712 8.526 A 9.754 9.754 0 0 1 49.84 8.744 Q 51.244 9.058 52.267 9.824 A 5.569 5.569 0 0 1 53.235 10.752 A 7.73 7.73 0 0 1 54.749 13.851 Q 55.023 14.961 55.057 16.258 A 14.181 14.181 0 0 1 55.062 16.632 L 55.062 30.87 L 51.282 30.87 L 51.282 17.052 A 8.091 8.091 0 0 0 51.139 15.481 Q 50.954 14.551 50.534 13.817 A 4.606 4.606 0 0 0 50.169 13.272 Q 49.056 11.844 47.082 11.844 Q 45.15 11.844 43.428 13.209 Q 41.706 14.574 40.488 16.422 L 40.488 30.87 Z M 20.538 2.478 L 19.32 5.838 Q 18.018 5.208 16.653 4.83 A 9.666 9.666 0 0 0 15.366 4.572 Q 14.701 4.482 13.95 4.46 A 17.096 17.096 0 0 0 13.44 4.452 Q 10.752 4.452 8.631 5.838 A 8.89 8.89 0 0 0 5.958 8.602 A 11.331 11.331 0 0 0 5.292 9.828 Q 4.169 12.229 4.082 15.557 A 21.669 21.669 0 0 0 4.074 16.128 A 17.582 17.582 0 0 0 4.333 19.218 A 12.99 12.99 0 0 0 5.271 22.302 Q 6.468 24.948 8.589 26.418 A 8.275 8.275 0 0 0 13.27 27.887 A 10.035 10.035 0 0 0 13.44 27.888 Q 15.278 27.888 16.681 27.486 A 8.098 8.098 0 0 0 17.01 27.384 Q 18.522 26.88 19.95 26.082 L 21.168 29.4 A 15.776 15.776 0 0 1 19.28 30.259 A 20.115 20.115 0 0 1 17.619 30.807 Q 15.624 31.374 12.978 31.374 Q 9.156 31.374 6.216 29.547 A 12.012 12.012 0 0 1 2.068 25.16 A 14.665 14.665 0 0 1 1.638 24.339 A 15.797 15.797 0 0 1 0.337 20.258 Q 0.011 18.467 0.001 16.428 A 26.386 26.386 0 0 1 0 16.296 A 20.736 20.736 0 0 1 0.415 12.06 A 16.273 16.273 0 0 1 1.659 8.337 A 13.287 13.287 0 0 1 4.59 4.292 A 12.541 12.541 0 0 1 6.363 2.919 A 12.336 12.336 0 0 1 11.689 1.067 A 15.663 15.663 0 0 1 13.482 0.966 A 19.168 19.168 0 0 1 15.607 1.079 A 14.784 14.784 0 0 1 17.304 1.365 A 16.054 16.054 0 0 1 20.444 2.434 A 14.953 14.953 0 0 1 20.538 2.478 Z M 79.254 21.504 L 63.966 21.504 Q 64.318 24.361 65.874 26.051 A 6.292 6.292 0 0 0 66.108 26.292 A 5.94 5.94 0 0 0 69.311 27.893 A 8.409 8.409 0 0 0 70.77 28.014 A 15.426 15.426 0 0 0 72.566 27.915 A 11.582 11.582 0 0 0 74.172 27.615 Q 75.684 27.216 77.07 26.586 L 77.952 29.82 A 17.123 17.123 0 0 1 76.132 30.503 A 21.783 21.783 0 0 1 74.55 30.933 A 16.344 16.344 0 0 1 72.412 31.277 A 21.851 21.851 0 0 1 70.308 31.374 A 11.893 11.893 0 0 1 67.055 30.952 A 8.865 8.865 0 0 1 62.853 28.371 A 9.879 9.879 0 0 1 60.667 24.364 Q 60.102 22.405 60.102 19.95 A 14.851 14.851 0 0 1 60.452 16.665 A 12.113 12.113 0 0 1 61.341 14.091 Q 62.58 11.508 64.806 10.017 Q 67.032 8.526 69.972 8.526 A 11.993 11.993 0 0 1 72.27 8.735 Q 73.674 9.009 74.796 9.644 A 7.229 7.229 0 0 1 75.201 9.891 Q 77.28 11.256 78.33 13.566 A 11.838 11.838 0 0 1 79.349 17.709 A 14.042 14.042 0 0 1 79.38 18.648 A 31.586 31.586 0 0 1 79.258 21.461 A 29.117 29.117 0 0 1 79.254 21.504 Z M 137.802 10.794 L 137.802 9.03 L 141.246 9.03 L 141.246 25.578 A 5.103 5.103 0 0 0 141.289 26.265 Q 141.428 27.287 142.023 27.657 Q 142.8 28.14 143.724 28.14 L 142.926 31.08 A 7.443 7.443 0 0 1 141.135 30.882 Q 138.768 30.294 138.098 27.964 A 5.708 5.708 0 0 1 138.054 27.804 A 8.949 8.949 0 0 1 136.748 29.243 A 11.969 11.969 0 0 1 135.429 30.261 A 6.27 6.27 0 0 1 133.349 31.145 Q 132.501 31.344 131.514 31.37 A 11.426 11.426 0 0 1 131.208 31.374 Q 128.478 31.374 126.252 29.988 A 9.638 9.638 0 0 1 123.139 26.827 A 11.728 11.728 0 0 1 122.703 26.061 A 11.436 11.436 0 0 1 121.599 22.725 A 15.39 15.39 0 0 1 121.38 20.076 A 13.92 13.92 0 0 1 121.799 16.603 A 11.747 11.747 0 0 1 122.703 14.196 Q 124.026 11.592 126.357 10.059 A 9.365 9.365 0 0 1 131.059 8.545 A 11.503 11.503 0 0 1 131.712 8.526 A 9.485 9.485 0 0 1 133.726 8.732 A 7.855 7.855 0 0 1 135.135 9.177 A 10.921 10.921 0 0 1 136.936 10.141 A 9.283 9.283 0 0 1 137.802 10.794 Z M 29.988 30.87 L 26.208 30.87 L 26.208 9.03 L 29.988 9.03 L 29.988 30.87 Z M 137.466 25.284 L 137.466 13.566 Q 136.332 12.768 134.967 12.285 Q 133.602 11.802 132.09 11.802 A 6.688 6.688 0 0 0 130.002 12.119 A 5.89 5.89 0 0 0 128.541 12.831 A 6.846 6.846 0 0 0 126.433 15.109 A 8.384 8.384 0 0 0 126.126 15.687 A 8.678 8.678 0 0 0 125.39 18.072 A 11.625 11.625 0 0 0 125.244 19.95 Q 125.244 22.302 126.126 24.129 A 7.393 7.393 0 0 0 127.431 26.039 A 6.593 6.593 0 0 0 128.562 26.985 Q 130.116 28.014 132.048 28.014 Q 133.644 28.014 135.072 27.237 A 8.169 8.169 0 0 0 137.055 25.746 A 7.59 7.59 0 0 0 137.466 25.284 Z M 63.924 18.438 L 75.894 18.438 Q 75.894 15.246 74.298 13.524 A 5.245 5.245 0 0 0 71.375 11.938 A 7.726 7.726 0 0 0 69.888 11.802 A 5.704 5.704 0 0 0 67.741 12.195 A 5.26 5.26 0 0 0 65.856 13.503 Q 64.528 14.919 64.072 17.397 A 13.449 13.449 0 0 0 63.924 18.438 Z M 26.266 4.531 A 2.508 2.508 0 0 0 28.098 5.292 A 3.434 3.434 0 0 0 28.727 5.237 A 2.372 2.372 0 0 0 30.03 4.557 A 2.426 2.426 0 0 0 30.629 3.521 A 3.155 3.155 0 0 0 30.744 2.646 A 3.05 3.05 0 0 0 30.744 2.612 A 2.545 2.545 0 0 0 29.967 0.777 A 3.104 3.104 0 0 0 29.943 0.753 A 2.545 2.545 0 0 0 28.098 0 A 3.471 3.471 0 0 0 27.403 0.067 A 2.378 2.378 0 0 0 26.166 0.714 Q 25.452 1.428 25.452 2.646 A 2.516 2.516 0 0 0 25.659 3.662 A 2.79 2.79 0 0 0 26.229 4.494 A 3.135 3.135 0 0 0 26.266 4.531 Z" vector-effect="non-scaling-stroke"/></g></svg>